<?xml version="1.0" encoding="utf-8"?>
<!-- Generator: Adobe Illustrator 24.1.3, SVG Export Plug-In . SVG Version: 6.00 Build 0)  -->
<svg version="1.1" id="Objects" xmlns="http://www.w3.org/2000/svg" xmlns:xlink="http://www.w3.org/1999/xlink" x="0px" y="0px"
	 viewBox="0 0 800 800" style="enable-background:new 0 0 800 800;" xml:space="preserve">
<style type="text/css">
	.st0{filter:url(#Adobe_OpacityMaskFilter);}
	.st1{filter:url(#Adobe_OpacityMaskFilter_1_);}
	.st2{mask:url(#SVGID_1_);fill:url(#SVGID_2_);}
	.st3{opacity:0.9;fill:url(#SVGID_3_);}
</style>
<g>
	<g>
		<g>
			<path d="M486.28,418.58L459.8,392.2c-98.24-86.9-162.44-145.49-162.44-217.35C297.36,116.39,342.75,71,401.22,71
				c32.21,0,64.3,15.14,85.06,39.67C507.03,86.14,539.12,71,571.34,71c58.47,0,103.86,45.39,103.86,103.86
				c0,71.86-64.21,130.45-162.44,217.35L486.28,418.58z M486.28,418.58"/>
		</g>
		<g>
			<path d="M787.05,414.31c-7.01,7.63-15.37,14.22-23.01,21.16c-9.21,8.38-18.68,16.48-28.23,24.46
				c-17.76,14.83-35.88,29.2-53.71,43.93c-3.51-8.94-11.08-16.58-18.96-21.81c-11.96-7.94-26.4-12.02-40.94-14.14
				c8.95-11.64,24.01-16.45,36.99-22.2c15.13-6.68,27.22-17.21,40.17-27.26c12.76-9.91,26.63-18.87,43.17-20.07
				C757.98,397.25,776.97,401.69,787.05,414.31z"/>
			<path d="M767.83,382.95c-1.22,3.8-3.99,7.27-6.25,10.49c-4.34-0.87-8.75-1.38-13.09-1.63c-18.27-1.05-34.6,7.7-48.83,18.24
				c-14.28,10.57-27.04,22.63-43.46,29.89c-15.25,6.74-31.59,12.38-41.22,26.92c-0.03,0.04-0.05,0.08-0.08,0.12
				c-4.78-0.5-9.51-0.81-14.13-1.02c-1.58-0.07-3.15-0.12-4.73-0.16c10.78-11.73,24.31-20.47,37.82-28.86
				c14.91-9.27,29.15-18.86,42.84-29.87c13.71-11.04,27.72-22.62,44.42-28.8C735.89,372.82,755.88,371.02,767.83,382.95z"/>
			<path d="M713.2,374.35c-12.79,5.69-24.29,14.65-35.05,23.23c-7.13,5.68-14.14,11.49-21.52,16.86
				c-7.73,5.63-15.95,10.6-24.08,15.63c-16.3,10.07-32.87,20.58-45.04,35.65c-11.97,0.09-23.94,0.89-35.89,1.78
				c10.61-10.63,23.08-19.23,35.23-28.02c13.96-10.08,26.37-21.36,38.92-33.1c12.22-11.43,25.21-22.48,40.99-28.6
				C681.18,372.19,697.92,371.01,713.2,374.35z"/>
			<path d="M512.88,540.07c-0.78-0.12-1.52-0.15-1.91-0.33c-4.27-0.39-8.56-0.72-12.85-0.97l-10.73-0.51
				c-0.17-0.11-1.55,0.13-1.69,0.01c-5.8-0.13-11.6-0.1-17.39,0.13l-6.14,0.33c-5.35,0.36-10.69,0.89-16,1.64
				c-24.07,3.41-46.95,10.77-68.73,21.5c-3.76,1.86-7.07-3.77-3.29-5.63c24.22-11.94,49.81-20.01,76.7-22.99
				c20.49-2.27,41.14-1.84,61.63,0.08c0.38,0.02,0.77,0.05,1.16,0.11c3.02,0.3,6.03,0.62,9.05,0.97
				c20.12,2.36,40.05,6.14,60.24,7.93c20.33,1.8,41.78,2.27,61.33-4.51c15.22-5.28,37.58-12.55,32.66-32.03
				c-4.75-18.84-25.56-22.75-42.56-27.57c-22.69-6.43-46.45-6.78-69.86-6.16c-23.25,0.64-46.55-3.62-69.81-4.21
				c-21.9-0.56-44.18-9.21-63.42-20.31c-0.23-0.09-0.48-0.21-0.72-0.38c-0.11-0.07-0.21-0.15-0.32-0.22
				c-0.03-0.02-0.06-0.03-0.09-0.06c-0.08-0.04-0.14-0.1-0.21-0.15c-31.68-21.83-65.84-50.11-106.1-51.36
				c-21.21-0.66-41.7,5.08-62.3,9.28c-10.1,2.06-20.54,4.14-30.88,4.35c-10.28,0.21-20.56,0.04-30.84-0.02
				c-23.97-0.14-47.78,1.15-70.4,9.86c-21.58,8.31-42.22,19.07-61.16,32.37c-18.98,13.32-35.16,29.37-51.88,45.31
				c-1.07,1.02-2.14,2.04-3.21,3.05l87.63,130.89c5.22-3.82,10.65-7.33,16.33-10.44c20.52-11.23,42.65-16.47,66.03-16.14
				c23.74,0.33,47.54,4.57,70.62,9.83c25.82,5.9,51.34,13.02,76.95,19.77c25.47,6.7,51.1,13.19,77.08,17.56
				c25.16,4.22,52.06,6.72,77.21,1.06c0.25-0.06,0.48-0.08,0.72-0.09c23.84-14.27,43.64-33.91,63.26-53.36
				c9.78-9.7,19.56-19.44,29.91-28.54c7.96-7,16.19-14.33,25.29-20.03c-25.08-0.04-50.41-5.12-75.26-8.39L512.88,540.07z"/>
			<path d="M553.45,454.55c0.18-0.01,0.37-0.01,0.55-0.02v-0.47C553.82,454.22,553.63,454.38,553.45,454.55z"/>
		</g>
	</g>
	<defs>
		<filter id="Adobe_OpacityMaskFilter" filterUnits="userSpaceOnUse" x="63.86" y="654.97" width="714.83" height="73.03">
			<feFlood  style="flood-color:white;flood-opacity:1" result="back"/>
			<feBlend  in="SourceGraphic" in2="back" mode="normal"/>
		</filter>
	</defs>
	<mask maskUnits="userSpaceOnUse" x="63.86" y="654.97" width="714.83" height="73.03" id="SVGID_1_">
		<g class="st0">
			<defs>
				<filter id="Adobe_OpacityMaskFilter_1_" filterUnits="userSpaceOnUse" x="63.86" y="654.97" width="714.83" height="73.03">
					<feFlood  style="flood-color:white;flood-opacity:1" result="back"/>
					<feBlend  in="SourceGraphic" in2="back" mode="normal"/>
				</filter>
			</defs>
			<mask maskUnits="userSpaceOnUse" x="63.86" y="654.97" width="714.83" height="73.03" id="SVGID_1_">
				<g class="st1">
				</g>
			</mask>
			
				<radialGradient id="SVGID_2_" cx="1157.3673" cy="18844.5293" r="455.0235" gradientTransform="matrix(0.7857 0.0114 -1.100000e-03 0.0794 -467.3438 -817.9638)" gradientUnits="userSpaceOnUse">
				<stop  offset="0" style="stop-color:#FFFFFF"/>
				<stop  offset="0.1137" style="stop-color:#E9E9E9"/>
				<stop  offset="0.35" style="stop-color:#B2B2B2"/>
				<stop  offset="0.6853" style="stop-color:#595959"/>
				<stop  offset="1" style="stop-color:#000000"/>
			</radialGradient>
			<path class="st2" d="M778.69,696.68c0.29-19.96-159.51-38.47-356.9-41.34c-197.38-2.87-357.64,10.98-357.93,30.94
				c-0.29,19.96,159.5,38.47,356.88,41.33C618.12,730.49,778.39,716.63,778.69,696.68z"/>
		</g>
	</mask>
	
		<radialGradient id="SVGID_3_" cx="1157.3673" cy="18844.5293" r="455.0235" gradientTransform="matrix(0.7857 0.0114 -1.100000e-03 0.0794 -467.3438 -817.9638)" gradientUnits="userSpaceOnUse">
		<stop  offset="0" style="stop-color:#666666"/>
		<stop  offset="0.1923" style="stop-color:#7C7C7C"/>
		<stop  offset="0.5918" style="stop-color:#B3B3B3"/>
		<stop  offset="1" style="stop-color:#F2F2F2"/>
	</radialGradient>
	<path class="st3" d="M778.69,696.68c0.29-19.96-159.51-38.47-356.9-41.34c-197.38-2.87-357.64,10.98-357.93,30.94
		c-0.29,19.96,159.5,38.47,356.88,41.33C618.12,730.49,778.39,716.63,778.69,696.68z"/>
</g>
</svg>
