<svg id="visual" viewBox="0 0 900 600" width="900" height="600" xmlns="http://www.w3.org/2000/svg" xmlns:xlink="http://www.w3.org/1999/xlink" version="1.1"><rect x="0" y="0" width="900" height="600" fill="#cad3da"></rect><path d="M0 103L11.5 106.5C23 110 46 117 69 120C92 123 115 122 138.2 122.7C161.3 123.3 184.7 125.7 207.8 122.8C231 120 254 112 277 108C300 104 323 104 346 107C369 110 392 116 415.2 114.7C438.3 113.3 461.7 104.7 484.8 103.3C508 102 531 108 554 110C577 112 600 110 623 112C646 114 669 120 692.2 118.5C715.3 117 738.7 108 761.8 105.2C785 102.3 808 105.7 831 106.7C854 107.7 877 106.3 888.5 105.7L900 105L900 0L888.5 0C877 0 854 0 831 0C808 0 785 0 761.8 0C738.7 0 715.3 0 692.2 0C669 0 646 0 623 0C600 0 577 0 554 0C531 0 508 0 484.8 0C461.7 0 438.3 0 415.2 0C392 0 369 0 346 0C323 0 300 0 277 0C254 0 231 0 207.8 0C184.7 0 161.3 0 138.2 0C115 0 92 0 69 0C46 0 23 0 11.5 0L0 0Z" fill="#d33c2e"></path><path d="M0 84L11.5 88C23 92 46 100 69 101C92 102 115 96 138.2 90.7C161.3 85.3 184.7 80.7 207.8 81.2C231 81.7 254 87.3 277 88.5C300 89.7 323 86.3 346 84.3C369 82.3 392 81.7 415.2 84.5C438.3 87.3 461.7 93.7 484.8 95.3C508 97 531 94 554 95C577 96 600 101 623 99.7C646 98.3 669 90.7 692.2 90C715.3 89.3 738.7 95.7 761.8 99.8C785 104 808 106 831 102C854 98 877 88 888.5 83L900 78L900 0L888.5 0C877 0 854 0 831 0C808 0 785 0 761.8 0C738.7 0 715.3 0 692.2 0C669 0 646 0 623 0C600 0 577 0 554 0C531 0 508 0 484.8 0C461.7 0 438.3 0 415.2 0C392 0 369 0 346 0C323 0 300 0 277 0C254 0 231 0 207.8 0C184.7 0 161.3 0 138.2 0C115 0 92 0 69 0C46 0 23 0 11.5 0L0 0Z" fill="#ac2218"></path><path d="M0 76L11.5 76.8C23 77.7 46 79.3 69 77.5C92 75.7 115 70.3 138.2 67.2C161.3 64 184.7 63 207.8 64.3C231 65.7 254 69.3 277 70.7C300 72 323 71 346 72.3C369 73.7 392 77.3 415.2 76.3C438.3 75.3 461.7 69.7 484.8 67.7C508 65.7 531 67.3 554 70.7C577 74 600 79 623 80.8C646 82.7 669 81.3 692.2 76.8C715.3 72.3 738.7 64.7 761.8 62.3C785 60 808 63 831 64.2C854 65.3 877 64.7 888.5 64.3L900 64L900 0L888.5 0C877 0 854 0 831 0C808 0 785 0 761.8 0C738.7 0 715.3 0 692.2 0C669 0 646 0 623 0C600 0 577 0 554 0C531 0 508 0 484.8 0C461.7 0 438.3 0 415.2 0C392 0 369 0 346 0C323 0 300 0 277 0C254 0 231 0 207.8 0C184.7 0 161.3 0 138.2 0C115 0 92 0 69 0C46 0 23 0 11.5 0L0 0Z" fill="#870000"></path><path d="M0 52L11.5 53.5C23 55 46 58 69 56C92 54 115 47 138.2 44.2C161.3 41.3 184.7 42.7 207.8 45C231 47.3 254 50.7 277 53C300 55.3 323 56.7 346 56.5C369 56.3 392 54.7 415.2 52.5C438.3 50.3 461.7 47.7 484.8 47.3C508 47 531 49 554 50.3C577 51.7 600 52.3 623 53.5C646 54.7 669 56.3 692.2 55.2C715.3 54 738.7 50 761.8 47.7C785 45.3 808 44.7 831 44.5C854 44.3 877 44.7 888.5 44.8L900 45L900 0L888.5 0C877 0 854 0 831 0C808 0 785 0 761.8 0C738.7 0 715.3 0 692.2 0C669 0 646 0 623 0C600 0 577 0 554 0C531 0 508 0 484.8 0C461.7 0 438.3 0 415.2 0C392 0 369 0 346 0C323 0 300 0 277 0C254 0 231 0 207.8 0C184.7 0 161.3 0 138.2 0C115 0 92 0 69 0C46 0 23 0 11.5 0L0 0Z" fill="#600000"></path><path d="M0 29L11.5 27.7C23 26.3 46 23.7 69 24.5C92 25.3 115 29.7 138.2 31.7C161.3 33.7 184.7 33.3 207.8 33.5C231 33.7 254 34.3 277 33.5C300 32.7 323 30.3 346 28.5C369 26.7 392 25.3 415.2 25.3C438.3 25.3 461.7 26.7 484.8 28.7C508 30.7 531 33.3 554 34.3C577 35.3 600 34.7 623 34C646 33.3 669 32.7 692.2 31C715.3 29.3 738.7 26.7 761.8 26.2C785 25.7 808 27.3 831 26.8C854 26.3 877 23.7 888.5 22.3L900 21L900 0L888.5 0C877 0 854 0 831 0C808 0 785 0 761.8 0C738.7 0 715.3 0 692.2 0C669 0 646 0 623 0C600 0 577 0 554 0C531 0 508 0 484.8 0C461.7 0 438.3 0 415.2 0C392 0 369 0 346 0C323 0 300 0 277 0C254 0 231 0 207.8 0C184.7 0 161.3 0 138.2 0C115 0 92 0 69 0C46 0 23 0 11.5 0L0 0Z" fill="#000000"></path></svg>