<svg id="visual" viewBox="0 0 900 450" width="900" height="450" xmlns="http://www.w3.org/2000/svg" xmlns:xlink="http://www.w3.org/1999/xlink" version="1.1"><rect x="0" y="0" width="900" height="450" fill="#cbd7cb"></rect><path d="M0 332L25 333.3C50 334.7 100 337.3 150 339.8C200 342.3 250 344.7 300 342.5C350 340.3 400 333.7 450 325.3C500 317 550 307 600 294.8C650 282.7 700 268.3 750 263.7C800 259 850 264 875 266.5L900 269L900 451L875 451C850 451 800 451 750 451C700 451 650 451 600 451C550 451 500 451 450 451C400 451 350 451 300 451C250 451 200 451 150 451C100 451 50 451 25 451L0 451Z" fill="#ff6f61"></path><path d="M0 282L25 297.2C50 312.3 100 342.7 150 347.5C200 352.3 250 331.7 300 324.2C350 316.7 400 322.3 450 315.3C500 308.3 550 288.7 600 299C650 309.3 700 349.7 750 358.8C800 368 850 346 875 335L900 324L900 451L875 451C850 451 800 451 750 451C700 451 650 451 600 451C550 451 500 451 450 451C400 451 350 451 300 451C250 451 200 451 150 451C100 451 50 451 25 451L0 451Z" fill="#f46254"></path><path d="M0 306L25 313.3C50 320.7 100 335.3 150 338.7C200 342 250 334 300 331.5C350 329 400 332 450 338.5C500 345 550 355 600 365C650 375 700 385 750 390.3C800 395.7 850 396.3 875 396.7L900 397L900 451L875 451C850 451 800 451 750 451C700 451 650 451 600 451C550 451 500 451 450 451C400 451 350 451 300 451C250 451 200 451 150 451C100 451 50 451 25 451L0 451Z" fill="#e95448"></path><path d="M0 374L25 372.8C50 371.7 100 369.3 150 370.3C200 371.3 250 375.7 300 380C350 384.3 400 388.7 450 385.5C500 382.3 550 371.7 600 374.5C650 377.3 700 393.7 750 400.7C800 407.7 850 405.3 875 404.2L900 403L900 451L875 451C850 451 800 451 750 451C700 451 650 451 600 451C550 451 500 451 450 451C400 451 350 451 300 451C250 451 200 451 150 451C100 451 50 451 25 451L0 451Z" fill="#dd463c"></path><path d="M0 409L25 408C50 407 100 405 150 407.8C200 410.7 250 418.3 300 411.7C350 405 400 384 450 383.8C500 383.7 550 404.3 600 410.5C650 416.7 700 408.3 750 400.5C800 392.7 850 385.3 875 381.7L900 378L900 451L875 451C850 451 800 451 750 451C700 451 650 451 600 451C550 451 500 451 450 451C400 451 350 451 300 451C250 451 200 451 150 451C100 451 50 451 25 451L0 451Z" fill="#d23630"></path><path d="M0 416L25 420.8C50 425.7 100 435.3 150 439.5C200 443.7 250 442.3 300 437.5C350 432.7 400 424.3 450 416C500 407.7 550 399.3 600 399.3C650 399.3 700 407.7 750 414.7C800 421.7 850 427.3 875 430.2L900 433L900 451L875 451C850 451 800 451 750 451C700 451 650 451 600 451C550 451 500 451 450 451C400 451 350 451 300 451C250 451 200 451 150 451C100 451 50 451 25 451L0 451Z" fill="#c72424"></path></svg>