<svg id="visual" viewBox="0 0 900 600" width="900" height="600" xmlns="http://www.w3.org/2000/svg" xmlns:xlink="http://www.w3.org/1999/xlink" version="1.1"><rect x="0" y="0" width="900" height="600" fill="#001122"></rect><path d="M0 456L10.7 460.8C21.3 465.7 42.7 475.3 64.2 479.8C85.7 484.3 107.3 483.7 128.8 484.7C150.3 485.7 171.7 488.3 193 478.7C214.3 469 235.7 447 257 439.2C278.3 431.3 299.7 437.7 321.2 448.2C342.7 458.7 364.3 473.3 385.8 475.3C407.3 477.3 428.7 466.7 450 465.2C471.3 463.7 492.7 471.3 514.2 465.5C535.7 459.7 557.3 440.3 578.8 433C600.3 425.7 621.7 430.3 643 429.2C664.3 428 685.7 421 707 417.5C728.3 414 749.7 414 771.2 415.2C792.7 416.3 814.3 418.7 835.8 429.2C857.3 439.7 878.7 458.3 889.3 467.7L900 477L900 601L889.3 601C878.7 601 857.3 601 835.8 601C814.3 601 792.7 601 771.2 601C749.7 601 728.3 601 707 601C685.7 601 664.3 601 643 601C621.7 601 600.3 601 578.8 601C557.3 601 535.7 601 514.2 601C492.7 601 471.3 601 450 601C428.7 601 407.3 601 385.8 601C364.3 601 342.7 601 321.2 601C299.7 601 278.3 601 257 601C235.7 601 214.3 601 193 601C171.7 601 150.3 601 128.8 601C107.3 601 85.7 601 64.2 601C42.7 601 21.3 601 10.7 601L0 601Z" fill="#eb005e"></path><path d="M0 433L10.7 443.8C21.3 454.7 42.7 476.3 64.2 486.7C85.7 497 107.3 496 128.8 484.7C150.3 473.3 171.7 451.7 193 445.8C214.3 440 235.7 450 257 454.5C278.3 459 299.7 458 321.2 458.2C342.7 458.3 364.3 459.7 385.8 455.5C407.3 451.3 428.7 441.7 450 445.5C471.3 449.3 492.7 466.7 514.2 476.5C535.7 486.3 557.3 488.7 578.8 489.3C600.3 490 621.7 489 643 485.7C664.3 482.3 685.7 476.7 707 473.7C728.3 470.7 749.7 470.3 771.2 462.7C792.7 455 814.3 440 835.8 435C857.3 430 878.7 435 889.3 437.5L900 440L900 601L889.3 601C878.7 601 857.3 601 835.8 601C814.3 601 792.7 601 771.2 601C749.7 601 728.3 601 707 601C685.7 601 664.3 601 643 601C621.7 601 600.3 601 578.8 601C557.3 601 535.7 601 514.2 601C492.7 601 471.3 601 450 601C428.7 601 407.3 601 385.8 601C364.3 601 342.7 601 321.2 601C299.7 601 278.3 601 257 601C235.7 601 214.3 601 193 601C171.7 601 150.3 601 128.8 601C107.3 601 85.7 601 64.2 601C42.7 601 21.3 601 10.7 601L0 601Z" fill="#cc0e58"></path><path d="M0 461L10.7 458.7C21.3 456.3 42.7 451.7 64.2 456.3C85.7 461 107.3 475 128.8 486.8C150.3 498.7 171.7 508.3 193 508.2C214.3 508 235.7 498 257 494C278.3 490 299.7 492 321.2 492.7C342.7 493.3 364.3 492.7 385.8 491C407.3 489.3 428.7 486.7 450 484.5C471.3 482.3 492.7 480.7 514.2 475.3C535.7 470 557.3 461 578.8 467.5C600.3 474 621.7 496 643 501.3C664.3 506.7 685.7 495.3 707 486.7C728.3 478 749.7 472 771.2 473C792.7 474 814.3 482 835.8 486.2C857.3 490.3 878.7 490.7 889.3 490.8L900 491L900 601L889.3 601C878.7 601 857.3 601 835.8 601C814.3 601 792.7 601 771.2 601C749.7 601 728.3 601 707 601C685.7 601 664.3 601 643 601C621.7 601 600.3 601 578.8 601C557.3 601 535.7 601 514.2 601C492.7 601 471.3 601 450 601C428.7 601 407.3 601 385.8 601C364.3 601 342.7 601 321.2 601C299.7 601 278.3 601 257 601C235.7 601 214.3 601 193 601C171.7 601 150.3 601 128.8 601C107.3 601 85.7 601 64.2 601C42.7 601 21.3 601 10.7 601L0 601Z" fill="#ad1651"></path><path d="M0 480L10.7 482.3C21.3 484.7 42.7 489.3 64.2 488.2C85.7 487 107.3 480 128.8 483.2C150.3 486.3 171.7 499.7 193 505C214.3 510.3 235.7 507.7 257 500.7C278.3 493.7 299.7 482.3 321.2 478.8C342.7 475.3 364.3 479.7 385.8 479.2C407.3 478.7 428.7 473.3 450 474.5C471.3 475.7 492.7 483.3 514.2 491.7C535.7 500 557.3 509 578.8 509.7C600.3 510.3 621.7 502.7 643 498.8C664.3 495 685.7 495 707 499.2C728.3 503.3 749.7 511.7 771.2 517C792.7 522.3 814.3 524.7 835.8 522.7C857.3 520.7 878.7 514.3 889.3 511.2L900 508L900 601L889.3 601C878.7 601 857.3 601 835.8 601C814.3 601 792.7 601 771.2 601C749.7 601 728.3 601 707 601C685.7 601 664.3 601 643 601C621.7 601 600.3 601 578.8 601C557.3 601 535.7 601 514.2 601C492.7 601 471.3 601 450 601C428.7 601 407.3 601 385.8 601C364.3 601 342.7 601 321.2 601C299.7 601 278.3 601 257 601C235.7 601 214.3 601 193 601C171.7 601 150.3 601 128.8 601C107.3 601 85.7 601 64.2 601C42.7 601 21.3 601 10.7 601L0 601Z" fill="#8f1948"></path><path d="M0 521L10.7 523.3C21.3 525.7 42.7 530.3 64.2 529.5C85.7 528.7 107.3 522.3 128.8 518.2C150.3 514 171.7 512 193 509C214.3 506 235.7 502 257 507C278.3 512 299.7 526 321.2 526.8C342.7 527.7 364.3 515.3 385.8 506.3C407.3 497.3 428.7 491.7 450 490.3C471.3 489 492.7 492 514.2 492.5C535.7 493 557.3 491 578.8 498.7C600.3 506.3 621.7 523.7 643 530.7C664.3 537.7 685.7 534.3 707 528.2C728.3 522 749.7 513 771.2 509.3C792.7 505.7 814.3 507.3 835.8 506.8C857.3 506.3 878.7 503.7 889.3 502.3L900 501L900 601L889.3 601C878.7 601 857.3 601 835.8 601C814.3 601 792.7 601 771.2 601C749.7 601 728.3 601 707 601C685.7 601 664.3 601 643 601C621.7 601 600.3 601 578.8 601C557.3 601 535.7 601 514.2 601C492.7 601 471.3 601 450 601C428.7 601 407.3 601 385.8 601C364.3 601 342.7 601 321.2 601C299.7 601 278.3 601 257 601C235.7 601 214.3 601 193 601C171.7 601 150.3 601 128.8 601C107.3 601 85.7 601 64.2 601C42.7 601 21.3 601 10.7 601L0 601Z" fill="#721a3e"></path><path d="M0 553L10.7 549.2C21.3 545.3 42.7 537.7 64.2 533.7C85.7 529.7 107.3 529.3 128.8 526.2C150.3 523 171.7 517 193 515.2C214.3 513.3 235.7 515.7 257 515.7C278.3 515.7 299.7 513.3 321.2 518.5C342.7 523.7 364.3 536.3 385.8 540C407.3 543.7 428.7 538.3 450 538.2C471.3 538 492.7 543 514.2 539.3C535.7 535.7 557.3 523.3 578.8 521.5C600.3 519.7 621.7 528.3 643 534C664.3 539.7 685.7 542.3 707 542.3C728.3 542.3 749.7 539.7 771.2 539.8C792.7 540 814.3 543 835.8 541.3C857.3 539.7 878.7 533.3 889.3 530.2L900 527L900 601L889.3 601C878.7 601 857.3 601 835.8 601C814.3 601 792.7 601 771.2 601C749.7 601 728.3 601 707 601C685.7 601 664.3 601 643 601C621.7 601 600.3 601 578.8 601C557.3 601 535.7 601 514.2 601C492.7 601 471.3 601 450 601C428.7 601 407.3 601 385.8 601C364.3 601 342.7 601 321.2 601C299.7 601 278.3 601 257 601C235.7 601 214.3 601 193 601C171.7 601 150.3 601 128.8 601C107.3 601 85.7 601 64.2 601C42.7 601 21.3 601 10.7 601L0 601Z" fill="#571933"></path><path d="M0 558L10.7 555.8C21.3 553.7 42.7 549.3 64.2 544.3C85.7 539.3 107.3 533.7 128.8 536.3C150.3 539 171.7 550 193 550.5C214.3 551 235.7 541 257 539.3C278.3 537.7 299.7 544.3 321.2 544.5C342.7 544.7 364.3 538.3 385.8 539.2C407.3 540 428.7 548 450 552.2C471.3 556.3 492.7 556.7 514.2 553.3C535.7 550 557.3 543 578.8 539.5C600.3 536 621.7 536 643 538.2C664.3 540.3 685.7 544.7 707 546.8C728.3 549 749.7 549 771.2 546C792.7 543 814.3 537 835.8 533C857.3 529 878.7 527 889.3 526L900 525L900 601L889.3 601C878.7 601 857.3 601 835.8 601C814.3 601 792.7 601 771.2 601C749.7 601 728.3 601 707 601C685.7 601 664.3 601 643 601C621.7 601 600.3 601 578.8 601C557.3 601 535.7 601 514.2 601C492.7 601 471.3 601 450 601C428.7 601 407.3 601 385.8 601C364.3 601 342.7 601 321.2 601C299.7 601 278.3 601 257 601C235.7 601 214.3 601 193 601C171.7 601 150.3 601 128.8 601C107.3 601 85.7 601 64.2 601C42.7 601 21.3 601 10.7 601L0 601Z" fill="#3d1527"></path><path d="M0 566L10.7 567.5C21.3 569 42.7 572 64.2 572C85.7 572 107.3 569 128.8 568.7C150.3 568.3 171.7 570.7 193 567C214.3 563.3 235.7 553.7 257 548.8C278.3 544 299.7 544 321.2 548C342.7 552 364.3 560 385.8 562.3C407.3 564.7 428.7 561.3 450 562.2C471.3 563 492.7 568 514.2 565.8C535.7 563.7 557.3 554.3 578.8 550.8C600.3 547.3 621.7 549.7 643 549.8C664.3 550 685.7 548 707 551.8C728.3 555.7 749.7 565.3 771.2 569.7C792.7 574 814.3 573 835.8 570.8C857.3 568.7 878.7 565.3 889.3 563.7L900 562L900 601L889.3 601C878.7 601 857.3 601 835.8 601C814.3 601 792.7 601 771.2 601C749.7 601 728.3 601 707 601C685.7 601 664.3 601 643 601C621.7 601 600.3 601 578.8 601C557.3 601 535.7 601 514.2 601C492.7 601 471.3 601 450 601C428.7 601 407.3 601 385.8 601C364.3 601 342.7 601 321.2 601C299.7 601 278.3 601 257 601C235.7 601 214.3 601 193 601C171.7 601 150.3 601 128.8 601C107.3 601 85.7 601 64.2 601C42.7 601 21.3 601 10.7 601L0 601Z" fill="#241119"></path><path d="M0 585L10.7 583.3C21.3 581.7 42.7 578.3 64.2 577.8C85.7 577.3 107.3 579.7 128.8 579.8C150.3 580 171.7 578 193 577.8C214.3 577.7 235.7 579.3 257 578.5C278.3 577.7 299.7 574.3 321.2 574C342.7 573.7 364.3 576.3 385.8 576.3C407.3 576.3 428.7 573.7 450 573.2C471.3 572.7 492.7 574.3 514.2 573.7C535.7 573 557.3 570 578.8 568.3C600.3 566.7 621.7 566.3 643 567.8C664.3 569.3 685.7 572.7 707 573.5C728.3 574.3 749.7 572.7 771.2 571C792.7 569.3 814.3 567.7 835.8 567.7C857.3 567.7 878.7 569.3 889.3 570.2L900 571L900 601L889.3 601C878.7 601 857.3 601 835.8 601C814.3 601 792.7 601 771.2 601C749.7 601 728.3 601 707 601C685.7 601 664.3 601 643 601C621.7 601 600.3 601 578.8 601C557.3 601 535.7 601 514.2 601C492.7 601 471.3 601 450 601C428.7 601 407.3 601 385.8 601C364.3 601 342.7 601 321.2 601C299.7 601 278.3 601 257 601C235.7 601 214.3 601 193 601C171.7 601 150.3 601 128.8 601C107.3 601 85.7 601 64.2 601C42.7 601 21.3 601 10.7 601L0 601Z" fill="#0b0407"></path></svg>