<svg id="visual" viewBox="0 0 900 600" width="900" height="600" xmlns="http://www.w3.org/2000/svg" xmlns:xlink="http://www.w3.org/1999/xlink" version="1.1"><rect x="0" y="0" width="900" height="600" fill="#DBE2E8"></rect><path d="M369 0L377.2 10C385.3 20 401.7 40 398.2 60C394.7 80 371.3 100 362.8 120C354.3 140 360.7 160 375.3 180C390 200 413 220 424 240C435 260 434 280 425 300C416 320 399 340 402.7 360C406.3 380 430.7 400 447 420C463.3 440 471.7 460 456.3 480C441 500 402 520 390 540C378 560 393 580 400.5 590L408 600L0 600L0 590C0 580 0 560 0 540C0 520 0 500 0 480C0 460 0 440 0 420C0 400 0 380 0 360C0 340 0 320 0 300C0 280 0 260 0 240C0 220 0 200 0 180C0 160 0 140 0 120C0 100 0 80 0 60C0 40 0 20 0 10L0 0Z" fill="#eb005e"></path><path d="M428 0L403.3 10C378.7 20 329.3 40 325.8 60C322.3 80 364.7 100 363.5 120C362.3 140 317.7 160 321.2 180C324.7 200 376.3 220 385.8 240C395.3 260 362.7 280 338.7 300C314.7 320 299.3 340 301.2 360C303 380 322 400 344 420C366 440 391 460 390.8 480C390.7 500 365.3 520 341.5 540C317.7 560 295.3 580 284.2 590L273 600L0 600L0 590C0 580 0 560 0 540C0 520 0 500 0 480C0 460 0 440 0 420C0 400 0 380 0 360C0 340 0 320 0 300C0 280 0 260 0 240C0 220 0 200 0 180C0 160 0 140 0 120C0 100 0 80 0 60C0 40 0 20 0 10L0 0Z" fill="#c80754"></path><path d="M347 0L337.7 10C328.3 20 309.7 40 307.2 60C304.7 80 318.3 100 308.7 120C299 140 266 160 260.7 180C255.3 200 277.7 220 284.5 240C291.3 260 282.7 280 275.5 300C268.3 320 262.7 340 262.2 360C261.7 380 266.3 400 269.5 420C272.7 440 274.3 460 287.3 480C300.3 500 324.7 520 338.2 540C351.7 560 354.3 580 355.7 590L357 600L0 600L0 590C0 580 0 560 0 540C0 520 0 500 0 480C0 460 0 440 0 420C0 400 0 380 0 360C0 340 0 320 0 300C0 280 0 260 0 240C0 220 0 200 0 180C0 160 0 140 0 120C0 100 0 80 0 60C0 40 0 20 0 10L0 0Z" fill="#a60c4a"></path><path d="M234 0L227.3 10C220.7 20 207.3 40 209.8 60C212.3 80 230.7 100 245 120C259.3 140 269.7 160 257.3 180C245 200 210 220 199.3 240C188.7 260 202.3 280 214.2 300C226 320 236 340 237.3 360C238.7 380 231.3 400 234.7 420C238 440 252 460 251.5 480C251 500 236 520 227 540C218 560 215 580 213.5 590L212 600L0 600L0 590C0 580 0 560 0 540C0 520 0 500 0 480C0 460 0 440 0 420C0 400 0 380 0 360C0 340 0 320 0 300C0 280 0 260 0 240C0 220 0 200 0 180C0 160 0 140 0 120C0 100 0 80 0 60C0 40 0 20 0 10L0 0Z" fill="#850e3e"></path><path d="M127 0L132.5 10C138 20 149 40 151.5 60C154 80 148 100 146.5 120C145 140 148 160 149.5 180C151 200 151 220 154.7 240C158.3 260 165.7 280 163.2 300C160.7 320 148.3 340 149.5 360C150.7 380 165.3 400 174.2 420C183 440 186 460 189 480C192 500 195 520 193.3 540C191.7 560 185.3 580 182.2 590L179 600L0 600L0 590C0 580 0 560 0 540C0 520 0 500 0 480C0 460 0 440 0 420C0 400 0 380 0 360C0 340 0 320 0 300C0 280 0 260 0 240C0 220 0 200 0 180C0 160 0 140 0 120C0 100 0 80 0 60C0 40 0 20 0 10L0 0Z" fill="#650e31"></path><path d="M125 0L124.8 10C124.7 20 124.3 40 125.5 60C126.7 80 129.3 100 123.7 120C118 140 104 160 94.3 180C84.7 200 79.3 220 77.3 240C75.3 260 76.7 280 83.8 300C91 320 104 340 112.2 360C120.3 380 123.7 400 121.8 420C120 440 113 460 114.2 480C115.3 500 124.7 520 122.7 540C120.7 560 107.3 580 100.7 590L94 600L0 600L0 590C0 580 0 560 0 540C0 520 0 500 0 480C0 460 0 440 0 420C0 400 0 380 0 360C0 340 0 320 0 300C0 280 0 260 0 240C0 220 0 200 0 180C0 160 0 140 0 120C0 100 0 80 0 60C0 40 0 20 0 10L0 0Z" fill="#470c24"></path></svg>